<?xml version="1.0" encoding="iso-8859-1"?>
<!-- Generator: Adobe Illustrator 17.1.0, SVG Export Plug-In . SVG Version: 6.00 Build 0)  -->
<!DOCTYPE svg PUBLIC "-//W3C//DTD SVG 1.1//EN" "http://www.w3.org/Graphics/SVG/1.1/DTD/svg11.dtd">
<svg xmlns="http://www.w3.org/2000/svg" xmlns:xlink="http://www.w3.org/1999/xlink" version="1.1" id="Capa_1" x="0px" y="0px" viewBox="0 0 227.376 227.376" style="enable-background:new 0 0 227.376 227.376;" xml:space="preserve" width="512px" height="512px">
<path d="M222.123,121.729l-28.958-9.09l-10.077-20.209c-1.269-2.545-3.868-4.153-6.712-4.153h-27c-4.142,0-7.5,3.357-7.5,7.5v56.171  h-7.385V76.27c0-2.854-1.62-5.461-4.179-6.725L73.154,41.321c-2.014-0.994-4.368-1.033-6.415-0.107L4.406,69.438  C1.724,70.653,0,73.325,0,76.27v83.178c0,4.143,3.358,7.5,7.5,7.5h37.617c1.19,11.16,10.659,19.882,22.129,19.882  c11.47,0,20.939-8.722,22.129-19.882h37.617c0.531,0,1.049-0.057,1.549-0.162c0.5,0.105,1.018,0.162,1.549,0.162h19.287h6.338h7.483  c1.19,11.16,10.659,19.882,22.129,19.882s20.94-8.722,22.129-19.882h12.421c4.142,0,7.5-3.357,7.5-7.5v-30.563  C227.376,125.608,225.249,122.71,222.123,121.729z M67.246,171.83c-4.001,0-7.257-3.256-7.257-7.257  c0-4.002,3.256-7.258,7.257-7.258s7.257,3.256,7.257,7.258C74.503,168.574,71.248,171.83,67.246,171.83z M92.287,114.164H42.205  V86.123h50.082V114.164z M185.326,171.83c-4.001,0-7.257-3.256-7.257-7.257c0-4.002,3.256-7.258,7.257-7.258  s7.257,3.256,7.257,7.258C192.583,168.574,189.328,171.83,185.326,171.83z" fill="#FFFFFF"/>
<g>
</g>
<g>
</g>
<g>
</g>
<g>
</g>
<g>
</g>
<g>
</g>
<g>
</g>
<g>
</g>
<g>
</g>
<g>
</g>
<g>
</g>
<g>
</g>
<g>
</g>
<g>
</g>
<g>
</g>
</svg>
